<mxfile host="Electron" modified="2024-02-24T05:37:05.723Z" agent="Mozilla/5.0 (Windows NT 10.0; Win64; x64) AppleWebKit/537.36 (KHTML, like Gecko) draw.io/23.1.5 Chrome/120.0.6099.109 Electron/28.1.0 Safari/537.36" etag="ejNmzu28uwCeWFiqpqW4" version="23.1.5" type="device">
  <diagram name="Page-1" id="nkaiE7fHLRPjWeTQoYGN">
    <mxGraphModel dx="1567" dy="699" grid="0" gridSize="10" guides="0" tooltips="1" connect="1" arrows="0" fold="1" page="0" pageScale="1" pageWidth="827" pageHeight="1169" math="0" shadow="0">
      <root>
        <mxCell id="0" />
        <mxCell id="1" parent="0" />
        <mxCell id="M4vIJ4LtB6W4Ja6Pzv6Q-1" value="Cliente" style="shape=umlActor;verticalLabelPosition=bottom;verticalAlign=top;html=1;outlineConnect=0;" parent="1" vertex="1">
          <mxGeometry x="63" y="110" width="30" height="60" as="geometry" />
        </mxCell>
        <mxCell id="M4vIJ4LtB6W4Ja6Pzv6Q-3" value="Área de&lt;br&gt;despacho" style="shape=umlActor;verticalLabelPosition=bottom;verticalAlign=top;html=1;outlineConnect=0;" parent="1" vertex="1">
          <mxGeometry x="210" y="110" width="30" height="60" as="geometry" />
        </mxCell>
        <mxCell id="M4vIJ4LtB6W4Ja6Pzv6Q-4" value="Área de&lt;br&gt;limpieza" style="shape=umlActor;verticalLabelPosition=bottom;verticalAlign=top;html=1;outlineConnect=0;" parent="1" vertex="1">
          <mxGeometry x="514" y="111" width="30" height="60" as="geometry" />
        </mxCell>
        <mxCell id="M4vIJ4LtB6W4Ja6Pzv6Q-5" value="Área de&lt;br&gt;facturación" style="shape=umlActor;verticalLabelPosition=bottom;verticalAlign=top;html=1;outlineConnect=0;" parent="1" vertex="1">
          <mxGeometry x="357" y="111" width="30" height="60" as="geometry" />
        </mxCell>
        <mxCell id="M4vIJ4LtB6W4Ja6Pzv6Q-8" value="Ingresa el usuario y la contraseña&lt;br style=&quot;font-size: 10px;&quot;&gt;&lt;br style=&quot;font-size: 10px;&quot;&gt;&lt;div style=&quot;font-size: 10px;&quot;&gt;&lt;span style=&quot;background-color: initial; font-size: 10px;&quot;&gt;Sus credenciales son validadas&lt;/span&gt;&lt;/div&gt;" style="rounded=0;whiteSpace=wrap;html=1;fontSize=10;align=left;" parent="1" vertex="1">
          <mxGeometry x="24" y="279" width="109" height="62" as="geometry" />
        </mxCell>
        <mxCell id="M4vIJ4LtB6W4Ja6Pzv6Q-10" value="" style="endArrow=none;html=1;rounded=0;" parent="1" edge="1">
          <mxGeometry width="50" height="50" relative="1" as="geometry">
            <mxPoint x="144" y="2105" as="sourcePoint" />
            <mxPoint x="162" y="87" as="targetPoint" />
          </mxGeometry>
        </mxCell>
        <mxCell id="M4vIJ4LtB6W4Ja6Pzv6Q-11" value="" style="endArrow=none;html=1;rounded=0;" parent="1" edge="1">
          <mxGeometry width="50" height="50" relative="1" as="geometry">
            <mxPoint x="276" y="2105" as="sourcePoint" />
            <mxPoint x="291" y="94" as="targetPoint" />
          </mxGeometry>
        </mxCell>
        <mxCell id="M4vIJ4LtB6W4Ja6Pzv6Q-12" value="" style="endArrow=none;html=1;rounded=0;" parent="1" edge="1">
          <mxGeometry width="50" height="50" relative="1" as="geometry">
            <mxPoint x="462" y="2105" as="sourcePoint" />
            <mxPoint x="472" y="98" as="targetPoint" />
          </mxGeometry>
        </mxCell>
        <mxCell id="M4vIJ4LtB6W4Ja6Pzv6Q-14" value="Las&lt;br&gt;credenciales corresponden a la de un cliente autenticado" style="rhombus;whiteSpace=wrap;html=1;" parent="1" vertex="1">
          <mxGeometry x="23" y="375" width="108" height="147" as="geometry" />
        </mxCell>
        <mxCell id="M4vIJ4LtB6W4Ja6Pzv6Q-15" value="" style="endArrow=classic;html=1;rounded=0;entryX=0.499;entryY=-0.023;entryDx=0;entryDy=0;entryPerimeter=0;exitX=0.499;exitY=1.035;exitDx=0;exitDy=0;exitPerimeter=0;" parent="1" source="M4vIJ4LtB6W4Ja6Pzv6Q-8" target="M4vIJ4LtB6W4Ja6Pzv6Q-14" edge="1">
          <mxGeometry width="50" height="50" relative="1" as="geometry">
            <mxPoint x="7" y="402" as="sourcePoint" />
            <mxPoint x="57" y="352" as="targetPoint" />
          </mxGeometry>
        </mxCell>
        <mxCell id="M4vIJ4LtB6W4Ja6Pzv6Q-17" value="" style="endArrow=classic;html=1;rounded=0;exitX=0.02;exitY=0.495;exitDx=0;exitDy=0;exitPerimeter=0;entryX=-0.046;entryY=0.512;entryDx=0;entryDy=0;entryPerimeter=0;" parent="1" source="M4vIJ4LtB6W4Ja6Pzv6Q-14" target="M4vIJ4LtB6W4Ja6Pzv6Q-8" edge="1">
          <mxGeometry width="50" height="50" relative="1" as="geometry">
            <mxPoint x="-78" y="459" as="sourcePoint" />
            <mxPoint x="-48.74000000000001" y="497.56999999999994" as="targetPoint" />
            <Array as="points">
              <mxPoint x="-47" y="448" />
              <mxPoint x="-47" y="312" />
            </Array>
          </mxGeometry>
        </mxCell>
        <mxCell id="M4vIJ4LtB6W4Ja6Pzv6Q-19" value="Inicio" style="ellipse;whiteSpace=wrap;html=1;" parent="1" vertex="1">
          <mxGeometry x="46" y="209" width="60" height="43" as="geometry" />
        </mxCell>
        <mxCell id="M4vIJ4LtB6W4Ja6Pzv6Q-20" value="" style="endArrow=classic;html=1;rounded=0;entryX=0.481;entryY=0.006;entryDx=0;entryDy=0;entryPerimeter=0;exitX=0.51;exitY=1.034;exitDx=0;exitDy=0;exitPerimeter=0;" parent="1" source="M4vIJ4LtB6W4Ja6Pzv6Q-19" target="M4vIJ4LtB6W4Ja6Pzv6Q-8" edge="1">
          <mxGeometry width="50" height="50" relative="1" as="geometry">
            <mxPoint x="89" y="338" as="sourcePoint" />
            <mxPoint x="89" y="370" as="targetPoint" />
          </mxGeometry>
        </mxCell>
        <mxCell id="M4vIJ4LtB6W4Ja6Pzv6Q-21" value="" style="endArrow=classic;html=1;rounded=0;exitX=0.502;exitY=1.011;exitDx=0;exitDy=0;exitPerimeter=0;entryX=0.496;entryY=-0.025;entryDx=0;entryDy=0;entryPerimeter=0;" parent="1" source="M4vIJ4LtB6W4Ja6Pzv6Q-14" target="M4vIJ4LtB6W4Ja6Pzv6Q-22" edge="1">
          <mxGeometry width="50" height="50" relative="1" as="geometry">
            <mxPoint x="87" y="354" as="sourcePoint" />
            <mxPoint x="77" y="576" as="targetPoint" />
          </mxGeometry>
        </mxCell>
        <mxCell id="M4vIJ4LtB6W4Ja6Pzv6Q-22" value="Selecciona el equipo a alquilar&lt;br style=&quot;font-size: 10px;&quot;&gt;&lt;br&gt;Selecciona forma de recepción&lt;br&gt;&lt;br style=&quot;font-size: 10px;&quot;&gt;Su solicitud de alquiler es confirmada&lt;br style=&quot;font-size: 10px;&quot;&gt;&lt;br style=&quot;font-size: 10px;&quot;&gt;Visualiza un resumen del alquiler" style="rounded=0;whiteSpace=wrap;html=1;fontSize=10;align=left;" parent="1" vertex="1">
          <mxGeometry x="25" y="552" width="105" height="141" as="geometry" />
        </mxCell>
        <mxCell id="RQHWqwjnm3S9cBSDuoQl-110" style="edgeStyle=orthogonalEdgeStyle;rounded=0;orthogonalLoop=1;jettySize=auto;html=1;exitX=0.5;exitY=1;exitDx=0;exitDy=0;entryX=0.5;entryY=0;entryDx=0;entryDy=0;" parent="1" source="M4vIJ4LtB6W4Ja6Pzv6Q-23" target="RQHWqwjnm3S9cBSDuoQl-109" edge="1">
          <mxGeometry relative="1" as="geometry" />
        </mxCell>
        <mxCell id="M4vIJ4LtB6W4Ja6Pzv6Q-23" value="Verifica el estado del equipo" style="rounded=0;whiteSpace=wrap;html=1;fontSize=10;align=left;" parent="1" vertex="1">
          <mxGeometry x="177" y="735" width="93" height="50" as="geometry" />
        </mxCell>
        <mxCell id="M4vIJ4LtB6W4Ja6Pzv6Q-24" value="" style="endArrow=classic;html=1;rounded=0;exitX=0.452;exitY=1;exitDx=0;exitDy=0;exitPerimeter=0;entryX=0.489;entryY=-0.062;entryDx=0;entryDy=0;entryPerimeter=0;" parent="1" source="M4vIJ4LtB6W4Ja6Pzv6Q-22" target="M4vIJ4LtB6W4Ja6Pzv6Q-23" edge="1">
          <mxGeometry width="50" height="50" relative="1" as="geometry">
            <mxPoint x="-30" y="534" as="sourcePoint" />
            <mxPoint x="-30" y="586" as="targetPoint" />
            <Array as="points">
              <mxPoint x="72" y="704" />
              <mxPoint x="222" y="706" />
            </Array>
          </mxGeometry>
        </mxCell>
        <mxCell id="M4vIJ4LtB6W4Ja6Pzv6Q-25" value="Recibe la notificación de la solicitud de limpieza&lt;br style=&quot;font-size: 10px;&quot;&gt;&lt;br style=&quot;font-size: 10px;&quot;&gt;Realiza la limpieza del equipo" style="rounded=0;whiteSpace=wrap;html=1;fontSize=10;align=left;" parent="1" vertex="1">
          <mxGeometry x="511" y="918" width="108" height="83" as="geometry" />
        </mxCell>
        <mxCell id="M4vIJ4LtB6W4Ja6Pzv6Q-27" value="Coordina la entrega del equipo con el cliente" style="rounded=0;whiteSpace=wrap;html=1;fontSize=10;align=left;" parent="1" vertex="1">
          <mxGeometry x="158" y="1646.99" width="93" height="51" as="geometry" />
        </mxCell>
        <mxCell id="RQHWqwjnm3S9cBSDuoQl-94" style="edgeStyle=orthogonalEdgeStyle;rounded=0;orthogonalLoop=1;jettySize=auto;html=1;exitX=0.5;exitY=1;exitDx=0;exitDy=0;entryX=0.5;entryY=0;entryDx=0;entryDy=0;" parent="1" source="M4vIJ4LtB6W4Ja6Pzv6Q-29" target="RQHWqwjnm3S9cBSDuoQl-93" edge="1">
          <mxGeometry relative="1" as="geometry" />
        </mxCell>
        <mxCell id="M4vIJ4LtB6W4Ja6Pzv6Q-29" value="Calcula el precio del alquiler y aplica tarifas&lt;br style=&quot;font-size: 10px;&quot;&gt;&lt;br style=&quot;font-size: 10px;&quot;&gt;" style="rounded=0;whiteSpace=wrap;html=1;fontSize=10;align=left;" parent="1" vertex="1">
          <mxGeometry x="325" y="1059" width="93" height="58" as="geometry" />
        </mxCell>
        <mxCell id="cYJlw5q8iohgl10MVWAw-1" value="No" style="text;html=1;align=center;verticalAlign=middle;resizable=0;points=[];autosize=1;strokeColor=none;fillColor=none;" parent="1" vertex="1">
          <mxGeometry x="-18" y="419" width="32" height="26" as="geometry" />
        </mxCell>
        <mxCell id="cYJlw5q8iohgl10MVWAw-2" value="Sí" style="text;html=1;align=center;verticalAlign=middle;resizable=0;points=[];autosize=1;strokeColor=none;fillColor=none;" parent="1" vertex="1">
          <mxGeometry x="44" y="525" width="28" height="26" as="geometry" />
        </mxCell>
        <mxCell id="cYJlw5q8iohgl10MVWAw-3" value="Realiza el pago del alquiler" style="rounded=0;whiteSpace=wrap;html=1;fontSize=10;align=left;" parent="1" vertex="1">
          <mxGeometry x="23" y="1454.99" width="93" height="44" as="geometry" />
        </mxCell>
        <mxCell id="cYJlw5q8iohgl10MVWAw-5" value="Confirma el pago del cliente." style="rounded=0;whiteSpace=wrap;html=1;fontSize=10;align=left;" parent="1" vertex="1">
          <mxGeometry x="299" y="1553.99" width="93" height="44" as="geometry" />
        </mxCell>
        <mxCell id="cYJlw5q8iohgl10MVWAw-6" value="" style="endArrow=classic;html=1;rounded=0;exitX=0.456;exitY=1.051;exitDx=0;exitDy=0;exitPerimeter=0;entryX=0.449;entryY=-0.057;entryDx=0;entryDy=0;entryPerimeter=0;" parent="1" source="cYJlw5q8iohgl10MVWAw-3" target="cYJlw5q8iohgl10MVWAw-5" edge="1">
          <mxGeometry width="50" height="50" relative="1" as="geometry">
            <mxPoint x="351" y="1536.99" as="sourcePoint" />
            <mxPoint x="360" y="1388.99" as="targetPoint" />
            <Array as="points">
              <mxPoint x="65" y="1521.99" />
              <mxPoint x="341" y="1524.99" />
            </Array>
          </mxGeometry>
        </mxCell>
        <mxCell id="cYJlw5q8iohgl10MVWAw-7" value="" style="endArrow=classic;html=1;rounded=0;exitX=0.473;exitY=0.986;exitDx=0;exitDy=0;exitPerimeter=0;entryX=0.418;entryY=-0.055;entryDx=0;entryDy=0;entryPerimeter=0;" parent="1" source="cYJlw5q8iohgl10MVWAw-5" target="M4vIJ4LtB6W4Ja6Pzv6Q-27" edge="1">
          <mxGeometry width="50" height="50" relative="1" as="geometry">
            <mxPoint x="-42" y="1510.99" as="sourcePoint" />
            <mxPoint x="351" y="1560.99" as="targetPoint" />
            <Array as="points">
              <mxPoint x="343" y="1616.99" />
              <mxPoint x="197" y="1616.99" />
            </Array>
          </mxGeometry>
        </mxCell>
        <mxCell id="cYJlw5q8iohgl10MVWAw-10" value="Forma de recepción" style="rhombus;whiteSpace=wrap;html=1;" parent="1" vertex="1">
          <mxGeometry x="163" y="1733.99" width="80" height="80" as="geometry" />
        </mxCell>
        <mxCell id="cYJlw5q8iohgl10MVWAw-11" value="" style="endArrow=classic;html=1;rounded=0;entryX=0.501;entryY=-0.047;entryDx=0;entryDy=0;entryPerimeter=0;exitX=0.482;exitY=1.021;exitDx=0;exitDy=0;exitPerimeter=0;" parent="1" source="M4vIJ4LtB6W4Ja6Pzv6Q-27" target="cYJlw5q8iohgl10MVWAw-10" edge="1">
          <mxGeometry width="50" height="50" relative="1" as="geometry">
            <mxPoint x="-8" y="1742.99" as="sourcePoint" />
            <mxPoint x="42" y="1692.99" as="targetPoint" />
          </mxGeometry>
        </mxCell>
        <mxCell id="cYJlw5q8iohgl10MVWAw-12" value="Realiza el envío hacía la ubicación especificada por el cliente" style="rounded=0;whiteSpace=wrap;html=1;fontSize=10;align=left;" parent="1" vertex="1">
          <mxGeometry x="155" y="1854.99" width="93" height="77" as="geometry" />
        </mxCell>
        <mxCell id="cYJlw5q8iohgl10MVWAw-13" value="" style="endArrow=classic;html=1;rounded=0;entryX=0.5;entryY=0;entryDx=0;entryDy=0;exitX=0.5;exitY=1;exitDx=0;exitDy=0;" parent="1" source="cYJlw5q8iohgl10MVWAw-10" target="cYJlw5q8iohgl10MVWAw-12" edge="1">
          <mxGeometry width="50" height="50" relative="1" as="geometry">
            <mxPoint x="213" y="1708.99" as="sourcePoint" />
            <mxPoint x="213" y="1739.99" as="targetPoint" />
          </mxGeometry>
        </mxCell>
        <mxCell id="cYJlw5q8iohgl10MVWAw-14" value="Presencial" style="text;html=1;align=center;verticalAlign=middle;resizable=0;points=[];autosize=1;strokeColor=none;fillColor=none;" parent="1" vertex="1">
          <mxGeometry x="58" y="1750.99" width="73" height="26" as="geometry" />
        </mxCell>
        <mxCell id="cYJlw5q8iohgl10MVWAw-16" value="Envío" style="text;html=1;align=center;verticalAlign=middle;resizable=0;points=[];autosize=1;strokeColor=none;fillColor=none;" parent="1" vertex="1">
          <mxGeometry x="204" y="1815.99" width="47" height="26" as="geometry" />
        </mxCell>
        <mxCell id="cYJlw5q8iohgl10MVWAw-17" value="" style="endArrow=classic;html=1;rounded=0;exitX=0;exitY=0.5;exitDx=0;exitDy=0;entryX=0.5;entryY=0;entryDx=0;entryDy=0;" parent="1" source="cYJlw5q8iohgl10MVWAw-10" target="cYJlw5q8iohgl10MVWAw-18" edge="1">
          <mxGeometry width="50" height="50" relative="1" as="geometry">
            <mxPoint x="353" y="1606.99" as="sourcePoint" />
            <mxPoint x="-50" y="1815.99" as="targetPoint" />
            <Array as="points">
              <mxPoint x="64" y="1775.99" />
            </Array>
          </mxGeometry>
        </mxCell>
        <mxCell id="cYJlw5q8iohgl10MVWAw-18" value="Se dirige a la zona de despacho" style="rounded=0;whiteSpace=wrap;html=1;fontSize=10;align=left;" parent="1" vertex="1">
          <mxGeometry x="17" y="1810.99" width="93" height="75" as="geometry" />
        </mxCell>
        <mxCell id="cYJlw5q8iohgl10MVWAw-21" value="Fin" style="ellipse;whiteSpace=wrap;html=1;" parent="1" vertex="1">
          <mxGeometry x="33" y="2077.9900000000002" width="60" height="43" as="geometry" />
        </mxCell>
        <mxCell id="cYJlw5q8iohgl10MVWAw-22" value="" style="endArrow=classic;html=1;rounded=0;exitX=0.5;exitY=1;exitDx=0;exitDy=0;entryX=0.5;entryY=0;entryDx=0;entryDy=0;" parent="1" source="cYJlw5q8iohgl10MVWAw-12" target="cYJlw5q8iohgl10MVWAw-23" edge="1">
          <mxGeometry width="50" height="50" relative="1" as="geometry">
            <mxPoint x="177" y="1943.99" as="sourcePoint" />
            <mxPoint x="202" y="1964.99" as="targetPoint" />
            <Array as="points">
              <mxPoint x="202" y="1954.99" />
              <mxPoint x="63" y="1954.99" />
            </Array>
          </mxGeometry>
        </mxCell>
        <mxCell id="cYJlw5q8iohgl10MVWAw-23" value="Recibe el equipo junto con manuales y documentación" style="rounded=0;whiteSpace=wrap;html=1;fontSize=10;align=left;" parent="1" vertex="1">
          <mxGeometry x="16" y="1981.99" width="93" height="70" as="geometry" />
        </mxCell>
        <mxCell id="cYJlw5q8iohgl10MVWAw-24" value="" style="endArrow=classic;html=1;rounded=0;exitX=0.5;exitY=1;exitDx=0;exitDy=0;entryX=0.5;entryY=0;entryDx=0;entryDy=0;" parent="1" source="cYJlw5q8iohgl10MVWAw-23" target="cYJlw5q8iohgl10MVWAw-21" edge="1">
          <mxGeometry width="50" height="50" relative="1" as="geometry">
            <mxPoint x="212" y="1934.99" as="sourcePoint" />
            <mxPoint x="212" y="1974.99" as="targetPoint" />
          </mxGeometry>
        </mxCell>
        <mxCell id="cYJlw5q8iohgl10MVWAw-25" value="" style="endArrow=classic;html=1;rounded=0;exitX=0.5;exitY=1;exitDx=0;exitDy=0;entryX=0.5;entryY=0;entryDx=0;entryDy=0;" parent="1" source="cYJlw5q8iohgl10MVWAw-18" target="cYJlw5q8iohgl10MVWAw-23" edge="1">
          <mxGeometry width="50" height="50" relative="1" as="geometry">
            <mxPoint x="76" y="2062.9900000000002" as="sourcePoint" />
            <mxPoint x="76" y="2088.9900000000002" as="targetPoint" />
          </mxGeometry>
        </mxCell>
        <mxCell id="RQHWqwjnm3S9cBSDuoQl-100" style="edgeStyle=orthogonalEdgeStyle;rounded=0;orthogonalLoop=1;jettySize=auto;html=1;exitX=1;exitY=0.5;exitDx=0;exitDy=0;entryX=0.5;entryY=0;entryDx=0;entryDy=0;" parent="1" source="RQHWqwjnm3S9cBSDuoQl-93" target="waE8f3srzpMPEBuO5Sva-1" edge="1">
          <mxGeometry relative="1" as="geometry">
            <mxPoint x="431" y="1250" as="targetPoint" />
          </mxGeometry>
        </mxCell>
        <mxCell id="RQHWqwjnm3S9cBSDuoQl-104" style="edgeStyle=orthogonalEdgeStyle;rounded=0;orthogonalLoop=1;jettySize=auto;html=1;exitX=0.5;exitY=1;exitDx=0;exitDy=0;entryX=0.5;entryY=0;entryDx=0;entryDy=0;" parent="1" source="RQHWqwjnm3S9cBSDuoQl-93" target="RQHWqwjnm3S9cBSDuoQl-101" edge="1">
          <mxGeometry relative="1" as="geometry">
            <Array as="points">
              <mxPoint x="331" y="1331" />
              <mxPoint x="365" y="1331" />
            </Array>
          </mxGeometry>
        </mxCell>
        <mxCell id="RQHWqwjnm3S9cBSDuoQl-93" value="La cantidad contratada de equipo es mayor a 4" style="rhombus;whiteSpace=wrap;html=1;" parent="1" vertex="1">
          <mxGeometry x="275" y="1154" width="114" height="114" as="geometry" />
        </mxCell>
        <mxCell id="RQHWqwjnm3S9cBSDuoQl-107" style="edgeStyle=orthogonalEdgeStyle;rounded=0;orthogonalLoop=1;jettySize=auto;html=1;exitX=0.5;exitY=1;exitDx=0;exitDy=0;" parent="1" source="RQHWqwjnm3S9cBSDuoQl-101" target="cYJlw5q8iohgl10MVWAw-3" edge="1">
          <mxGeometry relative="1" as="geometry">
            <Array as="points">
              <mxPoint x="365" y="1434.99" />
              <mxPoint x="70" y="1434.99" />
            </Array>
          </mxGeometry>
        </mxCell>
        <mxCell id="RQHWqwjnm3S9cBSDuoQl-101" value="Se genera la factura del alquiler y la envia al cliente por correo electronico" style="rounded=0;whiteSpace=wrap;html=1;" parent="1" vertex="1">
          <mxGeometry x="305" y="1362.99" width="120" height="60" as="geometry" />
        </mxCell>
        <mxCell id="RQHWqwjnm3S9cBSDuoQl-105" value="No" style="text;html=1;strokeColor=none;fillColor=none;align=center;verticalAlign=middle;whiteSpace=wrap;rounded=0;" parent="1" vertex="1">
          <mxGeometry x="279" y="1267" width="60" height="30" as="geometry" />
        </mxCell>
        <mxCell id="RQHWqwjnm3S9cBSDuoQl-106" value="si" style="text;html=1;strokeColor=none;fillColor=none;align=center;verticalAlign=middle;whiteSpace=wrap;rounded=0;" parent="1" vertex="1">
          <mxGeometry x="383" y="1174" width="60" height="30" as="geometry" />
        </mxCell>
        <mxCell id="RQHWqwjnm3S9cBSDuoQl-111" style="edgeStyle=orthogonalEdgeStyle;rounded=0;orthogonalLoop=1;jettySize=auto;html=1;exitX=0;exitY=0.5;exitDx=0;exitDy=0;entryX=0;entryY=0.5;entryDx=0;entryDy=0;" parent="1" source="RQHWqwjnm3S9cBSDuoQl-109" target="M4vIJ4LtB6W4Ja6Pzv6Q-22" edge="1">
          <mxGeometry relative="1" as="geometry" />
        </mxCell>
        <mxCell id="RQHWqwjnm3S9cBSDuoQl-114" style="edgeStyle=orthogonalEdgeStyle;rounded=0;orthogonalLoop=1;jettySize=auto;html=1;exitX=0.5;exitY=1;exitDx=0;exitDy=0;entryX=0.5;entryY=0;entryDx=0;entryDy=0;" parent="1" source="RQHWqwjnm3S9cBSDuoQl-109" target="RQHWqwjnm3S9cBSDuoQl-113" edge="1">
          <mxGeometry relative="1" as="geometry" />
        </mxCell>
        <mxCell id="RQHWqwjnm3S9cBSDuoQl-109" value="El equipo esta disponible" style="rhombus;whiteSpace=wrap;html=1;" parent="1" vertex="1">
          <mxGeometry x="188" y="807" width="80" height="80" as="geometry" />
        </mxCell>
        <mxCell id="RQHWqwjnm3S9cBSDuoQl-112" value="No" style="text;html=1;strokeColor=none;fillColor=none;align=center;verticalAlign=middle;whiteSpace=wrap;rounded=0;" parent="1" vertex="1">
          <mxGeometry x="143" y="820" width="60" height="30" as="geometry" />
        </mxCell>
        <mxCell id="RQHWqwjnm3S9cBSDuoQl-116" style="edgeStyle=orthogonalEdgeStyle;rounded=0;orthogonalLoop=1;jettySize=auto;html=1;exitX=1;exitY=0.5;exitDx=0;exitDy=0;entryX=0.5;entryY=0;entryDx=0;entryDy=0;" parent="1" source="RQHWqwjnm3S9cBSDuoQl-113" target="M4vIJ4LtB6W4Ja6Pzv6Q-25" edge="1">
          <mxGeometry relative="1" as="geometry" />
        </mxCell>
        <mxCell id="RQHWqwjnm3S9cBSDuoQl-113" value="Se reserva el equipo para el cliente" style="rounded=0;whiteSpace=wrap;html=1;" parent="1" vertex="1">
          <mxGeometry x="181" y="925" width="94" height="44" as="geometry" />
        </mxCell>
        <mxCell id="RQHWqwjnm3S9cBSDuoQl-115" value="SI" style="text;html=1;strokeColor=none;fillColor=none;align=center;verticalAlign=middle;whiteSpace=wrap;rounded=0;" parent="1" vertex="1">
          <mxGeometry x="176" y="885" width="60" height="30" as="geometry" />
        </mxCell>
        <mxCell id="RQHWqwjnm3S9cBSDuoQl-117" style="edgeStyle=orthogonalEdgeStyle;rounded=0;orthogonalLoop=1;jettySize=auto;html=1;exitX=0.5;exitY=1;exitDx=0;exitDy=0;entryX=0.448;entryY=0.022;entryDx=0;entryDy=0;entryPerimeter=0;" parent="1" source="M4vIJ4LtB6W4Ja6Pzv6Q-25" target="M4vIJ4LtB6W4Ja6Pzv6Q-29" edge="1">
          <mxGeometry relative="1" as="geometry" />
        </mxCell>
        <mxCell id="waE8f3srzpMPEBuO5Sva-1" value="Se aplica el descuento" style="rounded=0;whiteSpace=wrap;html=1;" vertex="1" parent="1">
          <mxGeometry x="375" y="1241" width="80" height="56" as="geometry" />
        </mxCell>
        <mxCell id="waE8f3srzpMPEBuO5Sva-2" style="edgeStyle=orthogonalEdgeStyle;rounded=0;orthogonalLoop=1;jettySize=auto;html=1;exitX=0.5;exitY=1;exitDx=0;exitDy=0;entryX=0.5;entryY=0;entryDx=0;entryDy=0;" edge="1" parent="1" source="waE8f3srzpMPEBuO5Sva-1" target="RQHWqwjnm3S9cBSDuoQl-101">
          <mxGeometry relative="1" as="geometry">
            <mxPoint x="425" y="1251" as="targetPoint" />
            <mxPoint x="399" y="1221" as="sourcePoint" />
          </mxGeometry>
        </mxCell>
      </root>
    </mxGraphModel>
  </diagram>
</mxfile>
